<svg xmlns="http://www.w3.org/2000/svg" viewBox="0 0 54.77 11.91"><defs><style>.cls-1{fill:#ed6923;}.cls-2{fill:#51abdf;}</style></defs><title>logo funzone svg</title><g id="Layer_3" data-name="Layer 3"><circle class="cls-1" cx="6.67" cy="5.83" r="0.49"/><path class="cls-1" d="M13.28,5.45a.7.7,0,0,0-.67.63.15.15,0,0,0,.16.13.16.16,0,0,0,.16-.13h0a.37.37,0,0,1,.35-.29.36.36,0,0,1,.34.29h0a.16.16,0,0,0,.16.13.15.15,0,0,0,.16-.13A.68.68,0,0,0,13.28,5.45Z"/><path class="cls-1" d="M6.18,7.47a3.79,3.79,0,0,0,7.57,0h0a.47.47,0,0,0-.94,0h0a2.85,2.85,0,0,1-5.7,0h0a.47.47,0,0,0-.94,0Z"/><path class="cls-2" d="M4.79.48h.07a.35.35,0,0,1,.28.16A.62.62,0,0,1,5.25,1a.69.69,0,0,1-.09.34.33.33,0,0,1-.3.16,2.51,2.51,0,0,0-1.62,1,2.78,2.78,0,0,0-.69,1.82v6.93a.48.48,0,0,1-.15.37.51.51,0,0,1-.35.13.45.45,0,0,1-.31-.13.46.46,0,0,1-.16-.37V4.26a3.73,3.73,0,0,1,.91-2.47A3.79,3.79,0,0,1,4.79.48ZM4.14,6.74v4.44a.47.47,0,0,1-.15.37.5.5,0,0,1-.36.14.47.47,0,0,1-.31-.13.48.48,0,0,1-.15-.37V4.3a2.31,2.31,0,0,1,.41-1.37,2.11,2.11,0,0,1,1.13-.8h.15a.38.38,0,0,1,.27.17.61.61,0,0,1,.12.34c0,.27-.11.43-.33.46a1.08,1.08,0,0,0-.57.41,1.13,1.13,0,0,0-.21.67h.63a.41.41,0,0,1,.33.16.55.55,0,0,1,.12.35.38.38,0,0,1-.43.43H4.14v.65h.65a.43.43,0,0,1,.35.15.54.54,0,0,1,.11.35.52.52,0,0,1-.12.33.46.46,0,0,1-.34.14Z"/><path class="cls-2" d="M21.6,7.61v3.58a.48.48,0,0,1-.15.37.53.53,0,0,1-.36.13.47.47,0,0,1-.31-.13.48.48,0,0,1-.15-.37V7.61a2.48,2.48,0,0,0-.72-1.79,2.39,2.39,0,0,0-1.77-.74,2.49,2.49,0,0,0-1.81.74,2.41,2.41,0,0,0-.74,1.79v3.58a.49.49,0,0,1-.16.37.51.51,0,0,1-.35.13.42.42,0,0,1-.31-.14.47.47,0,0,1-.16-.37V4.58a.38.38,0,0,1,.44-.43.65.65,0,0,1,.36.12.38.38,0,0,1,.18.33v.59a2.89,2.89,0,0,1,1.09-.78A3.33,3.33,0,0,1,18,4.15a3.65,3.65,0,0,1,2.52,1A3.17,3.17,0,0,1,21.6,7.61ZM20,7.61v3.58a.48.48,0,0,1-.15.37.51.51,0,0,1-.35.13.42.42,0,0,1-.31-.14.44.44,0,0,1-.16-.37V7.61A.76.76,0,0,0,18.76,7a1,1,0,0,0-.65-.23,1,1,0,0,0-.66.23.76.76,0,0,0-.28.64v3.57a.47.47,0,0,1-.16.37.59.59,0,0,1-.38.14c-.29,0-.43-.17-.43-.5V7.65a1.76,1.76,0,0,1,.57-1.38,2,2,0,0,1,1.34-.5,1.91,1.91,0,0,1,1.29.45A1.73,1.73,0,0,1,20,7.61Z"/><path class="cls-2" d="M23.54,9.62l-.11.26a1.24,1.24,0,0,0-.07.25.58.58,0,0,0,.16.4.64.64,0,0,0,.45.15h3.74a.37.37,0,0,1,.33.15.57.57,0,0,1,.11.36c0,.33-.14.5-.43.5H24.05a1.51,1.51,0,0,1-1.18-.48,1.57,1.57,0,0,1-.44-1.12,2,2,0,0,1,.42-1.16L24.8,6.71H23.36A.51.51,0,0,1,23,6.57a.44.44,0,0,1-.13-.33A.47.47,0,0,1,23,5.92a.48.48,0,0,1,.37-.15h3.56Zm.43.47,3.42-4,.1-.15a.46.46,0,0,0,.05-.21.65.65,0,0,0-.18-.46.56.56,0,0,0-.43-.19H23.37A.53.53,0,0,1,23,5a.47.47,0,0,1-.13-.34A.45.45,0,0,1,23,4.34a.51.51,0,0,1,.38-.16h3.56A1.36,1.36,0,0,1,28,4.69a1.75,1.75,0,0,1,.43,1.15,1.84,1.84,0,0,1-.08.53,1.34,1.34,0,0,1-.29.44L26.16,9.07h1.56a.35.35,0,0,1,.32.16.7.7,0,0,1,.11.38.53.53,0,0,1-.12.32.37.37,0,0,1-.31.15Z"/><path class="cls-2" d="M33.08,4.11a3.7,3.7,0,0,1,2.67,1.1,3.63,3.63,0,0,1,1.11,2.68,3.75,3.75,0,0,1-1.11,2.72,3.61,3.61,0,0,1-2.67,1.13,3.65,3.65,0,0,1-2.71-1.12,3.77,3.77,0,0,1-1.1-2.73,3.77,3.77,0,0,1,3.81-3.78Zm0,1a2.8,2.8,0,0,0-2,.82,2.71,2.71,0,0,0-.83,2,2.61,2.61,0,0,0,.83,2,2.76,2.76,0,0,0,2,.81,2.77,2.77,0,0,0,2.77-2.77,2.73,2.73,0,0,0-.81-2A2.64,2.64,0,0,0,33.08,5.08Zm0,.62a2,2,0,0,1,1.59.68,2.31,2.31,0,0,1,.54,1.55,2.28,2.28,0,0,1-.53,1.53,2,2,0,0,1-1.6.7,2.1,2.1,0,0,1-1.58-.67,2.2,2.2,0,0,1-.65-1.6,2.08,2.08,0,0,1,.64-1.55A2.14,2.14,0,0,1,33.08,5.7Zm0,.93a1.2,1.2,0,0,0-.92.38,1.31,1.31,0,0,0-.34.88,1.24,1.24,0,0,0,.33.87,1.17,1.17,0,0,0,.93.36A1.1,1.1,0,0,0,34,8.75a1.29,1.29,0,0,0,.32-.86A1.32,1.32,0,0,0,34,7,1.08,1.08,0,0,0,33.08,6.63Z"/><path class="cls-2" d="M44.71,7.61v3.58a.48.48,0,0,1-.15.37.53.53,0,0,1-.35.13.47.47,0,0,1-.32-.13.48.48,0,0,1-.15-.37V7.61A2.48,2.48,0,0,0,43,5.82a2.39,2.39,0,0,0-1.77-.74,2.51,2.51,0,0,0-1.81.74,2.41,2.41,0,0,0-.74,1.79v3.58a.46.46,0,0,1-.16.37.49.49,0,0,1-.35.13.44.44,0,0,1-.31-.14.47.47,0,0,1-.15-.37V4.58a.38.38,0,0,1,.43-.43.65.65,0,0,1,.36.12.38.38,0,0,1,.18.33v.59a2.89,2.89,0,0,1,1.09-.78,3.33,3.33,0,0,1,1.28-.26,3.65,3.65,0,0,1,2.52,1A3.17,3.17,0,0,1,44.71,7.61Zm-1.58,0v3.58a.49.49,0,0,1-.16.37.51.51,0,0,1-.35.13.42.42,0,0,1-.31-.14.44.44,0,0,1-.16-.37V7.61A.76.76,0,0,0,41.87,7a1,1,0,0,0-.65-.23,1,1,0,0,0-.66.23.76.76,0,0,0-.28.64v3.57a.47.47,0,0,1-.16.37.57.57,0,0,1-.38.14c-.29,0-.43-.17-.43-.5V7.65a1.73,1.73,0,0,1,.58-1.38,2,2,0,0,1,1.33-.5,1.9,1.9,0,0,1,1.29.45A1.74,1.74,0,0,1,43.13,7.61Z"/><path class="cls-2" d="M49.44,11.69a3.78,3.78,0,0,1-2.74-1.11,3.66,3.66,0,0,1-1.13-2.71A3.75,3.75,0,0,1,46.7,5.15,3.7,3.7,0,0,1,49.43,4a3.57,3.57,0,0,1,2.66,1.16A3.92,3.92,0,0,1,53.21,8a.54.54,0,0,1-.13.37.36.36,0,0,1-.29.13.56.56,0,0,1-.34-.15A.45.45,0,0,1,52.27,8V7.93a2.88,2.88,0,0,0-.84-2.1,2.69,2.69,0,0,0-2-.85,2.82,2.82,0,0,0-2.06.85,2.76,2.76,0,0,0-.86,2,2.63,2.63,0,0,0,.87,2,2.85,2.85,0,0,0,2.06.83h3.3a.44.44,0,0,1,.34.16.65.65,0,0,1,.13.38.53.53,0,0,1-.13.33.46.46,0,0,1-.34.14Zm0-1.6a2.22,2.22,0,0,1-1.63-.65,2.12,2.12,0,0,1-.65-1.58,2.24,2.24,0,0,1,.65-1.6,2.17,2.17,0,0,1,1.62-.67A2,2,0,0,1,51,6.26,2.41,2.41,0,0,1,51.62,8a.46.46,0,0,1-.18.34.56.56,0,0,1-.39.16H48.31a1.19,1.19,0,0,0,1.12.58h3.3a.42.42,0,0,1,.35.16.65.65,0,0,1,.13.38.51.51,0,0,1-.14.32.43.43,0,0,1-.34.15ZM48.17,7.53h2.44a.94.94,0,0,0-.39-.67,1.31,1.31,0,0,0-.76-.23,1.41,1.41,0,0,0-.81.25A1.07,1.07,0,0,0,48.17,7.53Z"/></g></svg>